<svg version="1.0" xmlns="http://www.w3.org/2000/svg"
 width="50px" height="50px" viewBox="0 0 188.000000 175.000000"
 preserveAspectRatio="xMidYMid meet">
<style>
  .TT{
    fill: black;

  }
  div svg:hover .TT{
      fill: white;
  }
  
  
</style>
<g class ="TT" transform="translate(0.000000,175.000000) scale(0.100000,-0.100000)"
fill="#000000" stroke="none">
<path d="M152 1476 c-22 -95 -28 -162 -14 -182 4 -6 17 -15 30 -18 20 -7 22
-12 15 -44 -14 -73 -6 -244 15 -344 36 -167 128 -309 209 -324 60 -11 152 44
313 189 29 26 51 50 48 52 -5 5 -47 -10 -113 -40 -42 -19 -99 -28 -125 -20
-18 6 -77 83 -68 89 2 2 23 10 48 18 25 9 85 30 134 48 74 27 92 30 113 21 14
-7 27 -10 29 -8 7 7 -24 159 -34 169 -10 10 -33 8 -238 -23 -71 -11 -92 -5
-104 27 -8 20 -3 124 6 124 1 0 14 -4 27 -9 14 -5 78 -12 143 -16 78 -4 127
-11 141 -20 12 -8 25 -15 28 -15 7 0 -2 207 -10 246 -4 18 -16 24 -68 33 -35
6 -87 11 -115 11 -111 0 -272 46 -338 96 -24 19 -45 34 -47 34 -1 0 -12 -42
-25 -94z"/>
<path d="M1590 1539 c-59 -50 -227 -99 -341 -99 -29 0 -81 -5 -116 -11 -52 -9
-64 -15 -67 -33 -7 -34 -16 -246 -10 -246 2 0 15 6 27 14 14 9 65 17 142 21
66 4 127 11 137 16 30 16 36 10 42 -44 12 -93 -8 -111 -105 -97 -35 5 -101 14
-147 21 -59 8 -86 9 -94 1 -14 -14 -37 -161 -26 -168 5 -3 16 0 24 7 12 10 23
10 52 0 53 -18 236 -84 241 -87 8 -6 -42 -75 -61 -85 -12 -6 -38 -8 -59 -5
-34 5 -59 15 -156 59 -31 14 -42 -1 -17 -21 12 -9 63 -52 114 -95 115 -97 182
-133 234 -123 82 15 177 163 212 326 18 89 24 265 11 337 -7 40 -6 43 18 49
33 8 43 30 39 79 -5 48 -46 215 -54 215 -3 -1 -21 -14 -40 -31z"/>
<path d="M710 714 c-59 -60 -96 -91 -271 -229 -76 -60 -138 -95 -171 -95 -20
0 -28 -5 -28 -17 0 -23 46 -122 67 -145 20 -22 65 -23 109 -2 37 18 212 201
261 274 45 67 109 200 117 243 10 54 -9 48 -84 -29z"/>
<path d="M1016 772 c-15 -25 66 -204 132 -291 69 -90 207 -233 244 -252 46
-24 90 -24 110 -2 20 24 54 90 67 131 10 32 9 32 -22 32 -18 0 -48 10 -67 21
-77 47 -269 199 -356 282 -50 48 -94 87 -97 87 -3 0 -8 -4 -11 -8z"/>
<path d="M820 687 c0 -55 -26 -250 -40 -298 -12 -44 -48 -92 -61 -83 -5 3 -21
23 -35 45 -13 21 -28 39 -34 39 -5 0 -17 -16 -26 -36 -9 -19 -46 -61 -81 -92
-57 -52 -61 -58 -41 -62 16 -4 33 -28 59 -81 39 -81 70 -106 111 -90 50 19
107 107 150 230 15 44 20 95 25 237 3 100 3 193 -1 208 -10 41 -26 31 -26 -17z"/>
<path d="M964 704 c-4 -15 -4 -104 -1 -198 4 -137 10 -185 27 -241 45 -142
111 -236 167 -237 44 -1 58 13 98 99 26 56 38 73 54 73 12 0 21 5 21 10 0 6
-4 10 -9 10 -18 0 -102 84 -127 126 -14 24 -30 44 -35 44 -5 0 -22 -20 -37
-45 -29 -49 -37 -51 -64 -14 -26 36 -45 120 -59 268 -13 129 -22 157 -35 105z"/>
</g>
</svg>
